<?xml version="1.0" standalone="no"?><svg xmlns="http://www.w3.org/2000/svg" viewBox="0 0 1440 320"><path fill="#e7008a" fill-opacity="1" d="M0,64L15,85.3C30,107,60,149,90,186.7C120,224,150,256,180,256C210,256,240,224,270,202.7C300,181,330,171,360,181.3C390,192,420,224,450,213.3C480,203,510,149,540,133.3C570,117,600,139,630,176C660,213,690,267,720,266.7C750,267,780,213,810,165.3C840,117,870,75,900,90.7C930,107,960,181,990,186.7C1020,192,1050,128,1080,122.7C1110,117,1140,171,1170,197.3C1200,224,1230,224,1260,234.7C1290,245,1320,267,1350,266.7C1380,267,1410,245,1425,234.7L1440,224L1440,320L1425,320C1410,320,1380,320,1350,320C1320,320,1290,320,1260,320C1230,320,1200,320,1170,320C1140,320,1110,320,1080,320C1050,320,1020,320,990,320C960,320,930,320,900,320C870,320,840,320,810,320C780,320,750,320,720,320C690,320,660,320,630,320C600,320,570,320,540,320C510,320,480,320,450,320C420,320,390,320,360,320C330,320,300,320,270,320C240,320,210,320,180,320C150,320,120,320,90,320C60,320,30,320,15,320L0,320Z"></path></svg>